<svg width="400" height="400" viewBox="0 0 400 400" fill="none" xmlns="http://www.w3.org/2000/svg">
<g clip-path="url(#clip0_2090_1201)">
<circle cx="200" cy="200" r="200" fill="#0C29AB"/>
<path d="M221.874 149.523C203.001 149.523 184.4 157.625 170.198 173.555V95H142.096V227.252V227.252C142.096 270.186 176.9 305 219.834 305C262.768 305 297.573 270.196 297.573 227.262C297.573 184.328 264.807 149.523 221.874 149.523ZM219.834 275.058C193.437 275.058 172.037 253.659 172.037 227.261C172.037 200.864 193.437 179.464 219.834 179.464C246.231 179.464 267.631 200.864 267.631 227.261C267.631 253.659 246.231 275.058 219.834 275.058Z" fill="white"/>
<path d="M121.665 266.552C111.048 266.552 102.441 275.159 102.441 285.776C102.441 296.392 111.048 304.999 121.665 304.999C132.282 304.999 140.888 296.392 140.888 285.776C140.888 275.159 132.282 266.552 121.665 266.552Z" fill="white"/>
</g>
<defs>
<clipPath id="clip0_2090_1201">
<rect width="400" height="400" fill="white"/>
</clipPath>
</defs>
</svg>
