<svg width="400" height="400" viewBox="0 0 400 400" fill="none" xmlns="http://www.w3.org/2000/svg">
<g clip-path="url(#clip0_2090_1205)">
<circle cx="200" cy="200" r="200" fill="#2B2B2B"/>
<path fill-rule="evenodd" clip-rule="evenodd" d="M287.831 255.705C292.664 264.075 289.796 274.778 281.426 279.61L230.908 308.777C222.538 313.61 211.835 310.742 207.002 302.372L174.919 246.802L119.349 278.885C110.979 283.718 100.276 280.85 95.4435 272.48L66.2768 221.961C61.4443 213.591 64.3121 202.889 72.6822 198.056L264.651 87.2227C273.021 82.3902 283.724 85.258 288.557 93.6282L317.723 144.146C322.556 152.516 319.688 163.219 311.318 168.052L255.748 200.135L287.831 255.705ZM78.5156 208.16L129.034 178.993C131.824 177.382 135.391 178.338 137.002 181.128L166.169 231.646C167.78 234.436 166.824 238.004 164.034 239.615L113.516 268.781C110.726 270.392 107.158 269.436 105.547 266.646L76.3804 216.128C74.7696 213.338 75.7255 209.771 78.5156 208.16ZM176.273 225.813L147.106 175.295C145.495 172.505 146.451 168.937 149.241 167.326L199.759 138.16C202.549 136.549 206.117 137.505 207.728 140.295L236.894 190.813C238.505 193.603 237.549 197.171 234.759 198.781L184.241 227.948C181.451 229.559 177.883 228.603 176.273 225.813ZM248.561 211.02C246.95 208.23 243.383 207.274 240.592 208.885L190.074 238.052C187.284 239.663 186.328 243.23 187.939 246.02L217.106 296.538C218.717 299.328 222.284 300.284 225.074 298.674L275.592 269.507C278.383 267.896 279.338 264.328 277.728 261.538L248.561 211.02ZM246.998 184.98C248.609 187.77 252.176 188.726 254.966 187.115L305.485 157.948C308.275 156.337 309.231 152.77 307.62 149.98L278.453 99.4615C276.842 96.6715 273.275 95.7155 270.485 97.3263L219.966 126.493C217.176 128.104 216.22 131.671 217.831 134.461L246.998 184.98Z" fill="white"/>
</g>
<defs>
<clipPath id="clip0_2090_1205">
<rect width="400" height="400" fill="white"/>
</clipPath>
</defs>
</svg>
