<svg width="400" height="400" viewBox="0 0 400 400" fill="none" xmlns="http://www.w3.org/2000/svg">
<rect width="400" height="400" fill="#3E34EB"/>
<path fill-rule="evenodd" clip-rule="evenodd" d="M305.087 209.83C306.5 158.362 298.005 128.261 287.048 112.356C286.958 112.195 286.858 112.039 286.749 111.891C280.564 103.108 273.664 98.7914 267.313 97.6292L266.598 97.5296C266.133 97.4964 265.667 97.4964 265.202 97.5296C247.412 98.8578 221.259 153.082 221.259 153.082C206.684 151.696 192.009 151.696 177.434 153.082C177.434 153.082 149.169 94.3917 131.38 97.6292C113.59 100.867 91.9429 129.025 94.1541 209.93C94.1541 209.93 82.0005 221.004 82.5159 227.927C82.9981 233.439 90.9453 237.888 90.9453 237.888C90.9453 237.888 83.2641 246.356 86.1404 256.931C91.0997 273.911 119.264 286.009 135.105 291.333C179.38 306.01 223.372 306.326 267.647 291.649C284.497 286.069 303.58 275.521 311.654 259.14C311.804 258.857 311.921 258.592 312.02 258.36C312.12 258.127 312.17 258.011 312.236 257.861L312.353 257.513C312.353 257.394 312.402 257.282 312.45 257.173C312.476 257.114 312.502 257.056 312.519 256.998C312.73 256.188 312.896 255.368 313.018 254.541C313.242 252.758 313.213 250.953 312.935 249.178C312.852 248.714 312.768 248.248 312.669 247.8C312.525 247.137 312.342 246.482 312.12 245.841C311.162 242.958 309.667 240.283 307.714 237.955H307.797C308.296 237.789 315.578 235.265 317.291 228.724C317.487 227.991 317.604 227.24 317.64 226.482V226.233C317.989 218.214 305.087 209.83 305.087 209.83ZM160.532 195.31C167.562 196.732 171.663 205.729 169.691 215.404C167.718 225.08 160.42 231.77 153.39 230.347C146.359 228.925 142.259 219.928 144.231 210.253C146.203 200.577 153.501 193.887 160.532 195.31ZM230.452 215.404C228.48 205.729 232.58 196.732 239.611 195.31C246.641 193.887 253.939 200.577 255.911 210.253C257.883 219.928 253.783 228.925 246.752 230.347C239.722 231.77 232.424 225.08 230.452 215.404ZM200.072 224.405C212.799 224.405 223.097 231.036 223.097 239.223C223.097 244.299 215.878 252.184 207.487 254.344C202.799 255.497 197.886 255.37 193.265 253.977C184.289 251.816 177.048 244.321 177.048 239.245C177.048 231.036 187.346 224.405 200.072 224.405ZM236.939 248.877C236.687 248.432 236.312 248.067 235.85 247.843C235.389 247.619 234.869 247.541 234.362 247.618C233.854 247.696 233.382 247.925 233.009 248.277C232.636 248.628 232.379 249.085 232.273 249.585L232.247 249.71V249.906C231.7 253.018 230.783 256.055 229.514 258.951C228.471 261.194 226.82 263.101 224.747 264.458C222.206 265.876 219.43 266.829 216.552 267.273C215.691 267.363 214.831 267.496 213.993 267.626L213.94 267.634C213.115 267.763 212.308 267.888 211.492 267.98C209.668 268.073 207.851 268.266 206.048 268.559H205.905L205.794 268.58C205.268 268.677 204.787 268.94 204.422 269.33C204.056 269.72 203.826 270.216 203.764 270.745C203.702 271.275 203.813 271.81 204.079 272.273C204.345 272.736 204.753 273.101 205.242 273.316L205.267 273.326C207.102 274.085 208.982 274.729 210.897 275.256L210.963 275.271C212.935 275.698 214.93 276.008 216.938 276.201L216.977 276.204C221.492 276.495 225.999 275.526 229.992 273.406L230.013 273.395C232.199 272.18 234.103 270.52 235.601 268.522C237.059 266.558 238.107 264.315 238.674 261.938L238.685 261.888C238.901 260.778 239.052 259.656 239.138 258.529L239.141 258.446C239.15 257.349 239.089 256.251 238.96 255.161C238.701 252.956 238.015 250.822 236.939 248.877Z" fill="white"/>
</svg>
