<svg width="400" height="400" viewBox="0 0 400 400" fill="none" xmlns="http://www.w3.org/2000/svg">
<rect width="400" height="400" fill="#DBDBDB"/>
<path d="M260.553 164.962C265.798 164.962 270.322 165.814 274.125 167.519C278.059 169.093 280.878 170.535 282.583 171.847C286.535 174.96 289.12 173.371 290.338 167.08C290.549 165.987 291.479 165.159 292.591 165.159C293.879 165.159 294.897 166.251 294.821 167.537C294.634 170.708 294.489 174.374 294.385 178.534C294.266 183.172 294.201 189.212 294.19 196.653C294.188 197.945 293.142 198.991 291.85 198.991C290.704 198.991 289.731 198.159 289.51 197.033C288.692 192.867 287.432 188.799 285.73 184.829C283.894 180.239 281.141 176.436 277.469 173.42C273.928 170.404 269.273 168.896 263.503 168.896C259.176 168.896 255.569 170.142 252.684 172.633C249.8 174.994 248.357 178.534 248.357 183.255C248.357 187.189 249.537 190.599 251.898 193.484C254.258 196.369 257.274 199.057 260.946 201.548C264.749 204.04 268.814 206.728 273.141 209.613C277.993 212.892 282.321 216.17 286.124 219.448C290.058 222.595 293.139 226.136 295.369 230.07C297.729 234.004 298.909 238.594 298.909 243.839C298.909 249.871 297.27 254.986 293.992 259.182C290.844 263.378 286.648 266.591 281.403 268.82C276.157 270.918 270.388 271.967 264.093 271.967C260.946 271.967 257.995 271.64 255.242 270.984C252.488 270.459 249.931 269.738 247.57 268.82C246.128 268.033 244.685 267.247 243.243 266.46C241.931 265.542 240.62 264.689 239.309 263.903C237.997 262.985 236.817 263.116 235.768 264.296C234.952 265.215 234.294 266.689 233.795 268.72C233.532 269.793 232.602 270.591 231.498 270.591C230.188 270.591 229.15 269.486 229.219 268.177C229.413 264.478 229.563 260.169 229.67 255.248C229.791 249.687 229.857 242.456 229.866 233.553C229.867 232.282 230.897 231.25 232.168 231.25C233.326 231.25 234.302 232.112 234.465 233.259C235.375 239.649 236.662 245.34 238.325 250.33C240.161 255.838 242.849 260.165 246.39 263.313C250.062 266.329 255.045 267.837 261.339 267.837C263.831 267.837 266.322 267.312 268.814 266.263C271.306 265.083 273.338 263.247 274.912 260.755C276.616 258.264 277.469 254.92 277.469 250.724C277.469 244.954 275.436 240.233 271.371 236.561C267.437 232.758 262.323 228.759 256.028 224.562C251.57 221.415 247.308 218.334 243.243 215.318C239.309 212.17 236.096 208.695 233.604 204.892C231.113 200.958 229.867 196.303 229.867 190.927C229.867 185.026 231.244 180.174 233.998 176.371C236.883 172.568 240.686 169.748 245.407 167.913C250.127 165.946 255.176 164.962 260.553 164.962Z" fill="black"/>
<path d="M245.899 183.256C245.899 178.024 247.516 173.7 251.099 170.753C252.691 169.383 254.461 168.351 256.39 167.638C252.872 168.009 249.53 168.858 246.353 170.182L246.324 170.194L246.297 170.204C241.979 171.883 238.56 174.432 235.968 177.843C233.602 181.126 232.325 185.426 232.325 190.926C232.325 195.911 233.476 200.095 235.682 203.578C238.009 207.121 241.024 210.39 244.754 213.378C248.772 216.358 252.984 219.404 257.391 222.516C263.765 226.765 269.007 230.857 273.079 234.794C277.651 238.951 279.928 244.328 279.928 250.724C279.928 255.228 279.016 259.113 276.942 262.145C275.143 264.964 272.782 267.104 269.867 268.485L269.818 268.509L269.769 268.529C268.948 268.875 268.12 269.163 267.291 269.408C272.044 269.114 276.424 268.154 280.45 266.549C285.327 264.474 289.162 261.524 292.025 257.706L292.581 256.964C295.133 253.388 296.451 249.052 296.451 243.839C296.451 238.974 295.36 234.834 293.26 231.334L293.245 231.31L293.228 231.283C291.17 227.651 288.306 224.342 284.588 221.368L284.552 221.339L284.517 221.31C280.799 218.104 276.55 214.884 271.766 211.652C267.448 208.773 263.391 206.09 259.598 203.605L259.581 203.595L259.566 203.583C255.734 200.983 252.532 198.14 249.996 195.04C247.255 191.69 245.899 187.723 245.899 183.256ZM232.318 235.509C232.301 243.532 232.242 250.131 232.13 255.301C232.035 259.648 231.9 263.528 231.737 266.94C232.252 265.251 232.949 263.767 233.931 262.662C234.724 261.771 235.799 261.02 237.169 260.868C238.467 260.724 239.627 261.163 240.575 261.793L241.595 262.421C241.979 262.661 242.364 262.905 242.747 263.155C239.825 259.93 237.586 255.889 235.992 251.107C234.442 246.457 233.222 241.254 232.318 235.509ZM292.244 169.654C291.999 170.505 291.72 171.288 291.383 171.986C290.789 173.217 289.96 174.355 288.773 175.084C286.572 176.437 284.259 175.846 282.291 174.637C284.702 177.315 286.612 180.411 288.013 183.915C289.649 187.741 290.886 191.661 291.734 195.67C291.749 188.666 291.813 182.93 291.927 178.47C292.008 175.241 292.114 172.302 292.244 169.654ZM250.816 183.256C250.816 186.656 251.82 189.507 253.8 191.927C255.98 194.592 258.804 197.12 262.305 199.498C266.111 201.992 270.177 204.682 274.505 207.567L274.517 207.577C279.426 210.893 283.823 214.222 287.703 217.565C291.815 220.862 295.087 224.606 297.476 228.805C300.097 233.173 301.368 238.213 301.368 243.839C301.368 250.326 299.596 255.977 295.955 260.655L295.958 260.658C292.529 265.23 287.972 268.699 282.364 271.083L282.315 271.102C276.748 273.329 270.664 274.427 264.093 274.427C260.815 274.427 257.709 274.087 254.781 273.4L253.707 273.182C251.222 272.655 248.877 271.967 246.678 271.112L246.532 271.053L246.392 270.978C244.951 270.191 243.508 269.406 242.066 268.619L241.944 268.553L241.832 268.475C240.566 267.589 239.302 266.768 238.043 266.012L237.97 265.966L237.899 265.917C237.831 265.869 237.775 265.836 237.73 265.812C237.698 265.842 237.653 265.876 237.606 265.929C237.18 266.407 236.644 267.428 236.182 269.308C235.675 271.373 233.839 273.05 231.497 273.05C228.764 273.05 226.622 270.747 226.763 268.048C226.956 264.381 227.106 260.097 227.213 255.194C227.333 249.658 227.399 242.445 227.408 233.551L227.432 233.065C227.678 230.668 229.702 228.793 232.169 228.793L232.613 228.812C234.669 229.003 236.349 230.502 236.817 232.482L236.9 232.911L237.252 235.231C238.113 240.561 239.251 245.332 240.658 249.552C242.379 254.717 244.845 258.634 247.977 261.434C251.082 263.973 255.444 265.377 261.339 265.377C263.458 265.377 265.607 264.934 267.804 264.017C269.825 263.05 271.5 261.553 272.833 259.442L272.857 259.405L272.882 259.366C274.217 257.415 275.011 254.612 275.011 250.724C275.011 245.607 273.241 241.563 269.722 238.385L269.693 238.358L269.661 238.329C265.866 234.659 260.878 230.75 254.664 226.608L254.637 226.591L254.61 226.571C250.137 223.414 245.86 220.32 241.778 217.291L241.742 217.264L241.707 217.237C237.592 213.945 234.197 210.281 231.549 206.239L231.536 206.224L231.527 206.207C228.75 201.822 227.408 196.695 227.408 190.926C227.408 184.642 228.88 179.247 232.008 174.928L232.022 174.906L232.039 174.884C235.216 170.697 239.398 167.611 244.515 165.621C249.535 163.538 254.889 162.504 260.553 162.504C266.032 162.504 270.895 163.39 275.072 165.25C278.54 166.639 281.321 167.99 283.287 169.325L284.083 169.899L284.105 169.916L284.681 170.336C285.21 170.688 285.596 170.846 285.848 170.904C286.107 170.965 286.164 170.915 286.197 170.895C286.302 170.83 286.597 170.586 286.954 169.847C287.305 169.119 287.642 168.064 287.923 166.612C288.34 164.46 290.206 162.699 292.591 162.699L293.094 162.726C295.569 162.988 297.424 165.17 297.276 167.682C297.092 170.818 296.948 174.454 296.844 178.595C296.726 183.205 296.66 189.225 296.649 196.656C296.645 199.301 294.501 201.448 291.851 201.449C289.48 201.449 287.536 199.735 287.098 197.506C286.313 193.513 285.104 189.61 283.47 185.797L283.458 185.77L283.448 185.741C281.76 181.52 279.247 178.063 275.909 175.321L275.875 175.292C272.879 172.739 268.835 171.354 263.504 171.354C259.682 171.354 256.671 172.44 254.293 174.493L254.266 174.515L254.242 174.537C252.075 176.31 250.816 179.059 250.816 183.256Z" fill="black"/>
<path d="M208.746 130.076C211.692 130.011 214.035 132.53 213.798 135.467C213.509 139.062 213.277 142.599 213.103 146.079C212.972 151.193 212.906 155.127 212.906 157.881C212.906 160.897 212.972 163.782 213.103 166.536C213.183 168.215 213.263 169.748 213.343 171.135C213.42 172.479 212.355 173.617 211.009 173.617C209.843 173.617 208.859 172.752 208.693 171.598C207.413 162.717 205.736 155.653 203.661 150.406C201.563 144.767 198.482 140.702 194.416 138.211C190.351 135.719 184.516 134.473 176.91 134.473H173.369C170.654 134.473 168.452 136.675 168.452 139.391V246.593C168.452 251.838 168.911 255.772 169.829 258.395C170.878 261.018 172.845 262.788 175.73 263.706C178.407 264.404 182.118 264.896 186.863 265.181C187.897 265.244 188.712 266.095 188.712 267.131C188.712 268.256 187.758 269.145 186.634 269.085C183.312 268.909 179.284 268.82 174.55 268.82C168.78 268.689 162.879 268.624 156.847 268.624C150.552 268.624 144.586 268.689 138.947 268.82C134.498 268.82 130.734 268.906 127.654 269.077C126.53 269.139 125.571 268.252 125.571 267.125C125.571 266.092 126.384 265.244 127.415 265.182C132.148 264.896 135.795 264.405 138.357 263.706C141.242 262.788 143.209 261.018 144.258 258.395C145.307 255.772 145.831 251.838 145.831 246.593V139.391C145.831 136.675 143.63 134.473 140.914 134.473H137.177C129.833 134.473 124.063 135.719 119.867 138.211C115.671 140.702 112.523 144.767 110.425 150.406C108.467 155.668 106.852 162.756 105.579 171.672C105.421 172.784 104.472 173.617 103.348 173.617C101.992 173.617 100.945 172.422 101.039 171.069C101.133 169.7 101.18 168.189 101.18 166.536C101.311 163.782 101.377 160.897 101.377 157.881C101.377 155.127 101.246 151.193 100.984 146.079C100.897 142.599 100.723 139.061 100.463 135.466C100.25 132.528 102.589 130.01 105.534 130.074C109.609 130.164 113.927 130.253 118.49 130.343C125.178 130.474 131.931 130.539 138.75 130.539C145.569 130.539 151.732 130.539 157.24 130.539C162.748 130.539 168.845 130.539 175.533 130.539C182.221 130.539 188.974 130.474 195.793 130.343C200.412 130.254 204.729 130.165 208.746 130.076Z" fill="black"/>
<path d="M210.447 157.881C210.447 155.096 210.513 151.137 210.645 146.016L210.647 145.987V145.955C210.822 142.45 211.056 138.888 211.348 135.269C211.468 133.763 210.268 132.503 208.801 132.535C204.782 132.624 200.46 132.712 195.84 132.801C192.926 132.857 190.024 132.898 187.134 132.93C190.432 133.599 193.302 134.644 195.701 136.114C200.346 138.961 203.728 143.532 205.967 149.549C207.938 154.549 209.52 161.013 210.762 168.882C210.725 168.17 210.684 167.427 210.647 166.653C210.514 163.857 210.447 160.933 210.447 157.881ZM165.994 139.39C165.994 136.654 167.487 134.272 169.7 132.999H144.583C146.796 134.272 148.291 136.654 148.291 139.39V246.592C148.291 251.929 147.766 256.242 146.541 259.307C145.197 262.666 142.629 264.925 139.102 266.048L139.053 266.065L139.004 266.077C138.634 266.178 138.245 266.273 137.839 266.365L138.948 266.36C144.59 266.23 150.556 266.165 156.846 266.165C162.877 266.165 168.779 266.23 174.551 266.36L176.299 266.368C175.886 266.277 175.489 266.184 175.11 266.085L175.046 266.07L174.985 266.048C171.457 264.925 168.89 262.666 167.546 259.307L167.527 259.258L167.507 259.207C166.45 256.185 165.994 251.914 165.994 246.592V139.39ZM103.835 157.881C103.835 160.89 103.77 163.776 103.64 166.536L103.63 167.786C103.628 167.92 103.623 168.052 103.621 168.184C104.829 160.618 106.319 154.39 108.12 149.549C110.367 143.51 113.828 138.937 118.611 136.097C121.061 134.642 123.928 133.598 127.178 132.93C124.254 132.898 121.342 132.858 118.442 132.801C113.878 132.711 109.557 132.622 105.481 132.532C104.021 132.5 102.804 133.76 102.915 135.289C103.176 138.899 103.351 142.454 103.44 145.953L103.611 149.583C103.759 152.999 103.835 155.768 103.835 157.881ZM170.911 246.592C170.911 251.715 171.364 255.295 172.129 257.523C172.879 259.367 174.222 260.626 176.406 261.339C178.855 261.971 182.364 262.448 187.009 262.728C189.319 262.866 191.172 264.772 191.172 267.132C191.171 269.693 189.007 271.674 186.504 271.541C183.24 271.368 179.258 271.28 174.551 271.28H174.522L174.495 271.277C168.744 271.147 162.86 271.082 156.846 271.082C150.569 271.082 144.621 271.147 139.004 271.277L138.975 271.28H138.948C134.527 271.28 130.81 271.364 127.791 271.531C125.445 271.662 123.386 269.934 123.137 267.601L123.113 267.125L123.135 266.69C123.346 264.538 125.106 262.858 127.268 262.728L128.962 262.613C132.758 262.326 135.639 261.891 137.666 261.343C139.875 260.627 141.227 259.352 141.975 257.481C142.847 255.301 143.372 251.746 143.372 246.592V139.39C143.371 138.033 142.271 136.932 140.913 136.932H137.175C130.068 136.932 124.794 138.146 121.123 140.325C117.514 142.468 114.679 146.025 112.73 151.263C110.858 156.291 109.274 163.188 108.013 172.02C107.683 174.328 105.71 176.075 103.347 176.075C100.471 176.074 98.4018 173.576 98.5865 170.899C98.6763 169.596 98.7207 168.143 98.7207 166.536V166.478L98.7232 166.419C98.8523 163.708 98.9185 160.862 98.9185 157.881C98.9185 155.191 98.7895 151.306 98.5279 146.204L98.5254 146.172V146.141C98.4394 142.701 98.2677 139.201 98.0103 135.643C97.6962 131.296 101.159 127.518 105.588 127.615C109.66 127.705 113.977 127.794 118.538 127.884C125.209 128.015 131.947 128.082 138.75 128.082H175.532C182.204 128.082 188.944 128.015 195.747 127.884C200.363 127.795 204.678 127.707 208.691 127.618C213.117 127.52 216.602 131.297 216.25 135.665C215.963 139.236 215.732 142.748 215.559 146.202C215.429 151.28 215.366 155.17 215.366 157.881C215.366 160.862 215.43 163.708 215.559 166.419C215.639 168.092 215.719 169.617 215.798 170.994C215.956 173.736 213.781 176.075 211.008 176.075C208.603 176.074 206.598 174.295 206.26 171.949C204.994 163.16 203.35 156.306 201.375 151.309L201.365 151.287L201.357 151.263C199.4 146.003 196.617 142.444 193.132 140.308C189.62 138.155 184.307 136.932 176.909 136.932H173.369C172.012 136.932 170.911 138.033 170.911 139.39V246.592Z" fill="black"/>
</svg>
