<svg width="400" height="400" viewBox="0 0 400 400" fill="none" xmlns="http://www.w3.org/2000/svg">
<g clip-path="url(#clip0_2090_1211)">
<circle cx="200" cy="200" r="200" fill="#FF3366"/>
<path d="M163.236 119.576C163.236 131.008 154.002 139.772 142.871 139.772C131.866 139.772 122.506 131.008 122.506 119.576C122.506 108.144 131.74 99.3792 142.871 99.3792C153.876 99.3792 163.236 108.144 163.236 119.576Z" fill="white"/>
<path d="M98.8518 262.983C98.8518 258.537 99.4842 252.948 100.623 247.867L115.802 185.119H92.1477L99.3577 158.444H156.406L133.89 248.122C132.372 253.965 131.74 258.664 131.74 261.967C131.74 267.683 134.523 269.334 138.95 270.35C141.606 270.858 162.857 270.477 174.494 244.565L189.294 185.119H165.26L172.47 158.444H223.826L217.248 188.675C226.229 171.781 244.191 155.777 261.9 155.777C280.874 155.777 296.432 169.241 296.432 195.153C296.432 201.759 295.547 208.999 293.143 217.128L283.53 251.805C282.645 255.489 282.012 258.537 282.012 261.205C282.012 267.175 284.415 270.223 288.969 270.223C293.523 270.223 299.215 266.921 305.793 248.503L318.948 253.583C311.105 281.02 297.065 292.452 279.356 292.452C258.611 292.452 248.745 280.131 248.745 263.237C248.745 258.41 249.377 253.202 250.895 248.122L260.761 212.555C262.026 208.745 262.279 205.061 262.279 201.759C262.279 190.327 255.449 183.34 244.318 183.34C230.15 183.34 220.917 193.502 216.11 213.064L196.883 290.42H163.236L169.308 266.159C159.441 282.544 145.78 292.579 128.83 292.579C108.465 292.579 98.8518 280.766 98.8518 262.983Z" fill="white"/>
</g>
<defs>
<clipPath id="clip0_2090_1211">
<rect width="400" height="400" fill="white"/>
</clipPath>
</defs>
</svg>
